<?xml version="1.0" encoding="UTF-8" standalone="no"?>
<!DOCTYPE svg PUBLIC "-//W3C//DTD SVG 20010904//EN"
"http://www.w3.org/TR/2001/REC-SVG-20010904/DTD/svg10.dtd">
<!-- Created with Sodipodi ("http://www.sodipodi.com/") -->
<svg
   xmlns="http://www.w3.org/2000/svg"
   xmlns:xlink="http://www.w3.org/1999/xlink"
   xmlns:sodipodi="http://sodipodi.sourceforge.net/DTD/sodipodi-0.dtd"
   baseProfile="tiny"
   width="100%"
   height="100%"
   viewBox="0 0 88 87.999"
   id="svg602"
   sodipodi:version="0.34"
   sodipodi:docname="src/cl2app.svg"
   sodipodi:docbase="src/">
  <defs
     id="defs645">
    <linearGradient
       id="linearGradient649">
      <stop
         style="stop-color:#000;stop-opacity:1;"
         offset="0"
         id="stop650" />
      <stop
         style="stop-color:#fff;stop-opacity:1;"
         offset="1"
         id="stop651" />
    </linearGradient>
    <radialGradient
       xlink:href="#linearGradient649"
       id="radialGradient652"
       cx="0.36065584"
       cy="0.3984375"
       r="0.25276253"
       fx="0.36065584"
       fy="0.3984375" />
    <linearGradient
       xlink:href="#linearGradient649"
       id="linearGradient653"
       x1="0.64754111"
       y1="0.5"
       x2="0.57377058"
       y2="0.328125" />
    <linearGradient
       xlink:href="#linearGradient649"
       id="linearGradient660"
       x1="-4.81457807e-9"
       y1="-6.63811051e-9"
       x2="1"
       y2="-6.63811051e-9" />
    <radialGradient
       xlink:href="#linearGradient649"
       id="radialGradient661"
       cx="0.5"
       cy="0.5"
       r="0.5"
       fx="0.5"
       fy="0.5" />
  </defs>
  <sodipodi:namedview
     id="base" />
  <path
     style="fill:none;fill-rule:evenodd;stroke:black;stroke-opacity:1;stroke-width:1pt;stroke-linejoin:miter;stroke-linecap:butt;fill-opacity:1;"
     d="M 10.03687 -6.987779 C 14.15511 -2.869615 21.42307 -1.357635 27.09794 -1.31262 "
     id="path655" />
  <path
     style="fill:none;fill-rule:evenodd;stroke:black;stroke-opacity:1;stroke-width:1pt;stroke-linejoin:miter;stroke-linecap:butt;fill-opacity:1;"
     d="M 41.75336 -6.184834 C 45.41983 4.814395 40.78802 8.171742 31.94999 14.24575 C 28.15816 16.85171 23.6318 18.46078 19.1616 19.40306 "
     id="path656" />
  <path
     style="fill:none;fill-rule:evenodd;stroke:black;stroke-opacity:1;stroke-width:1pt;stroke-linejoin:miter;stroke-linecap:butt;fill-opacity:1;"
     d="M 8.029493 21.91839 C 8.029493 30.97335 26.62915 38.29591 33.50374 38.33553 C 39.68991 38.37119 46.72227 37.95858 51.94224 34.27931 "
     id="path657" />
  <path
     style="fill:none;fill-rule:evenodd;stroke:black;stroke-opacity:1;stroke-width:1pt;stroke-linejoin:miter;stroke-linecap:butt;fill-opacity:1;"
     d="M 64.23594 6.662351 C 70.98005 13.40654 76.13125 24.28614 75.18344 33.83291 C 74.58749 39.83548 72.8619 45.97894 68.05864 49.89526 "
     id="path658" />
  <path
     style="fill:none;fill-rule:evenodd;stroke:black;stroke-opacity:1;stroke-width:1pt;stroke-linejoin:miter;stroke-linecap:butt;fill-opacity:1;"
     d="M 48.17696 51.22604 C 42.88806 51.22604 28.27637 59.22569 35.19972 66.06551 C 37.813 68.64726 41.62542 70.99734 45.10571 72.07416 "
     id="path659" />
  <path
     style="fill:none;fill-rule:evenodd;stroke:black;stroke-opacity:1;stroke-width:1pt;stroke-linejoin:miter;stroke-linecap:butt;fill-opacity:1;"
     d="M 55.80498 66.08061 C 64.52587 66.08061 74.11402 80.12526 62.69546 86.6341 C 58.82584 88.83986 52.4799 90.68709 48.1434 89.97042 "
     id="path660" />
  <path
     style="fill:none;fill-rule:evenodd;stroke:black;stroke-opacity:1;stroke-width:1pt;stroke-linejoin:miter;stroke-linecap:butt;fill-opacity:1;"
     d="M 9.635392 64.07323 C 2.534621 71.17403 12.695 82.34456 18.77372 86.12138 C 22.69837 88.55985 27.33911 90.68649 31.83267 91.77332 "
     id="path661" />
  <path
     style="fill:none;fill-rule:evenodd;stroke:black;stroke-opacity:1;stroke-width:1pt;stroke-linejoin:miter;stroke-linecap:butt;fill-opacity:1;"
     d="M 37.33714 81.33664 C 26.27771 75.80694 15.72648 62.20388 22.22779 49.56863 C 23.08383 47.90493 25.0382 46.3459 26.83597 45.86202 "
     id="path662" />
  <path
     style="fill:none;fill-rule:evenodd;stroke:black;stroke-opacity:1;stroke-width:1pt;stroke-linejoin:miter;stroke-linecap:butt;fill-opacity:1;"
     d="M 33.3224 19.50955 C 38.42589 19.50955 43.49339 18.73387 48.60867 18.68667 C 54.16974 18.63536 59.24017 22.24477 60.44033 27.53857 C 61.08852 30.39773 60.24084 33.7375 58.9667 36.29905 "
     id="path663" />
  <path
     style="fill:none;fill-rule:evenodd;stroke:black;stroke-opacity:1;stroke-width:1pt;stroke-linejoin:miter;stroke-linecap:butt;fill-opacity:1;"
     d="M 79.49198 -8.192206 C 77.45321 -12.26981 64.73268 -12.85278 61.11587 -11.65175 C 54.18057 -9.348739 52.57879 -3.41965 53.27795 3.164329 "
     id="path664" />
  <path
     style="fill:none;fill-rule:evenodd;stroke:black;stroke-opacity:1;stroke-width:1pt;stroke-linejoin:miter;stroke-linecap:butt;fill-opacity:1;"
     d="M 73.46986 62.86881 C 78.70945 65.48856 80.54378 75.99831 79.5911 81.117 C 77.63248 91.64055 67.41021 97.58756 57.20462 98.47012 "
     id="path665" />
  <path
     style="fill:none;fill-rule:evenodd;stroke:black;stroke-opacity:1;stroke-width:1pt;stroke-linejoin:miter;stroke-linecap:butt;fill-opacity:1;"
     d="M 18.86931 96.99415 C 15.17795 96.99415 5.124762 90.35336 3.898668 86.98088 C 3.833029 86.80034 3.801185 86.60922 3.749375 86.42423 "
     id="path666" />
  <path
     style="fill:none;fill-rule:evenodd;stroke:black;stroke-opacity:1;stroke-width:1pt;stroke-linejoin:miter;stroke-linecap:butt;fill-opacity:1;"
     d="M 11.24129 38.37885 C 6.511727 40.74364 4.49386 43.86392 3.566096 49.06843 "
     id="path667" />
  <path
     style="fill:none;fill-rule:evenodd;stroke:black;stroke-opacity:1;stroke-width:1pt;stroke-linejoin:miter;stroke-linecap:butt;fill-opacity:1;"
     d="M 15.25604 8.669732 C 10.57455 11.01044 4.350643 7.139778 1.484038 3.706964 "
     id="path668" />
  <path
     style="fill:none;fill-rule:evenodd;stroke:black;stroke-opacity:1;stroke-width:1pt;stroke-linejoin:miter;stroke-linecap:butt;fill-opacity:1;"
     d="M 7.297161 21.49992 C 9.114357 21.49992 20.72067 21.76519 21.29758 20.75602 C 21.4609 20.47034 21.07391 18.41257 21.07478 18.0918 "
     id="path626" />
  <path
     style="fill:none;fill-rule:evenodd;stroke:black;stroke-opacity:1;stroke-width:1pt;stroke-linejoin:miter;stroke-linecap:butt;fill-opacity:1;"
     d="M 58.78269 34.06725 C 56.89035 34.06725 56.07843 32.8095 54.27753 32.82631 C 53.18306 32.83652 50.94306 34.22917 50.10717 34.92441 C 50.06328 34.96091 50.21945 34.90222 50.27369 34.88439 "
     id="path627" />
  <path
     style="fill:none;fill-rule:evenodd;stroke:black;stroke-opacity:1;stroke-width:1pt;stroke-linejoin:miter;stroke-linecap:butt;fill-opacity:1;"
     d="M 41.35058 18.66214 C 41.35058 14.29278 43.57536 14.32612 43.44406 9.804556 C 43.37702 7.495965 43.34145 4.933145 42.53335 2.737358 "
     id="path628" />
  <path
     style="fill:none;fill-rule:evenodd;stroke:black;stroke-opacity:1;stroke-width:1pt;stroke-linejoin:miter;stroke-linecap:butt;fill-opacity:1;"
     d="M 49.05314 90.41755 C 47.68527 90.41755 39.0685 86.38453 38.44577 85.59893 C 37.96252 84.98928 37.18642 81.84551 37.24524 81.12956 "
     id="path649" />
  <path
     style="fill:none;fill-rule:evenodd;stroke:black;stroke-opacity:1;stroke-width:1pt;stroke-linejoin:miter;stroke-linecap:butt;fill-opacity:1;"
     d="M 25.94546 46.22918 C 32.1894 46.22918 39.52406 49.39853 44.93432 52.25333 C 45.04214 52.31021 46.07072 52.31467 46.32723 52.32368 "
     id="path650" />
  <path
     style="fill:none;fill-rule:evenodd;stroke:black;stroke-opacity:1;stroke-width:1pt;stroke-linejoin:miter;stroke-linecap:butt;fill-opacity:1;"
     d="M 42.97217 70.55306 C 42.97217 67.975 46.46875 68.57399 49.25034 67.41187 C 51.25944 66.57248 53.36491 65.92203 55.41373 65.18187 "
     id="path651" />
  <path
     style="fill:none;fill-rule:evenodd;stroke:#990000;stroke-opacity:1;stroke-width:1pt;stroke-linejoin:round;stroke-linecap:round;fill-opacity:1;"
     d="M 53.10712 21.49992 C 53.10712 25.86299 51.873 30.22475 51.07727 34.48784 "
     id="path652" />
  <path
     style="fill:none;fill-rule:evenodd;stroke:#990000;stroke-opacity:1;stroke-width:1pt;stroke-linejoin:round;stroke-linecap:round;fill-opacity:1;"
     d="M 46.21536 19.87833 C 46.21536 25.27252 46.06065 30.72044 45.78967 36.01555 C 45.78783 36.05154 45.79585 36.08736 45.79894 36.12326 "
     id="path653" />
  <path
     style="fill:none;fill-rule:evenodd;stroke:#990000;stroke-opacity:1;stroke-width:1pt;stroke-linejoin:round;stroke-linecap:round;fill-opacity:1;"
     d="M 38.1074 17.85133 C 38.1074 25.62969 38.1074 33.40803 38.1074 41.18638 "
     id="path654" />
  <path
     style="fill:none;fill-rule:evenodd;stroke:#990000;stroke-opacity:1;stroke-width:1pt;stroke-linejoin:round;stroke-linecap:round;fill-opacity:1;"
     d="M 30.81024 14.20275 C 30.81024 22.38663 31.63177 30.57433 31.62069 38.77929 "
     id="path669" />
  <path
     style="fill:none;fill-rule:evenodd;stroke:#990000;stroke-opacity:1;stroke-width:1pt;stroke-linejoin:round;stroke-linecap:round;fill-opacity:1;"
     d="M 25.13467 14.60815 C 25.13467 22.49865 25.68311 30.42964 25.92645 38.31566 "
     id="path670" />
  <path
     style="fill:none;fill-rule:evenodd;stroke:#990000;stroke-opacity:1;stroke-width:1pt;stroke-linejoin:round;stroke-linecap:round;fill-opacity:1;"
     d="M 16.21592 19.87833 C 16.21592 25.0732 16.87989 30.39587 17.03669 35.6156 "
     id="path671" />
  <path
     style="fill:none;fill-rule:evenodd;stroke:#990000;stroke-opacity:1;stroke-width:1pt;stroke-linejoin:round;stroke-linecap:round;fill-opacity:1;"
     d="M 34.45882 48.25618 C 34.45882 52.67016 34.45882 57.08414 34.45882 61.49812 "
     id="path672" />
  <path
     style="fill:none;fill-rule:evenodd;stroke:#990000;stroke-opacity:1;stroke-width:1pt;stroke-linejoin:round;stroke-linecap:round;fill-opacity:1;"
     d="M 28.37785 46.22918 C 28.37785 55.00583 27.27417 64.09394 26.9095 72.88962 C 26.76935 76.26985 26.64055 79.65085 26.47884 83.03015 "
     id="path673" />
  <path
     style="fill:none;fill-rule:evenodd;stroke:#990000;stroke-opacity:1;stroke-width:1pt;stroke-linejoin:round;stroke-linecap:round;fill-opacity:1;"
     d="M 22.70228 47.85078 C 22.70228 57.77088 21.87631 67.64443 21.29034 77.54956 "
     id="path674" />
  <path
     style="fill:none;fill-rule:evenodd;stroke:#990000;stroke-opacity:1;stroke-width:1pt;stroke-linejoin:round;stroke-linecap:round;fill-opacity:1;"
     d="M 36.48581 64.47209 C 36.48581 69.1966 36.91849 73.89914 37.1813 78.61786 "
     id="path675" />
  <path
     style="fill:none;fill-rule:evenodd;stroke:#990000;stroke-opacity:1;stroke-width:1pt;stroke-linejoin:round;stroke-linecap:round;fill-opacity:1;"
     d="M 41.75598 67.30987 C 41.75598 77.23111 43.00679 88.72054 43.46704 98.62127 C 43.52311 99.82756 43.57155 101.0343 43.64484 102.2397 "
     id="path676" />
  <path
     style="fill:none;fill-rule:evenodd;stroke:#990000;stroke-opacity:1;stroke-width:1pt;stroke-linejoin:round;stroke-linecap:round;fill-opacity:1;"
     d="M 48.24234 64.87749 C 48.24234 72.99353 48.41492 81.09289 48.60134 89.20827 "
     id="path677" />
  <path
     style="fill:none;fill-rule:evenodd;stroke:#990000;stroke-opacity:1;stroke-width:1pt;stroke-linejoin:round;stroke-linecap:round;fill-opacity:1;"
     d="M 57.5665 64.47209 C 55.36296 68.87917 56.73603 85.95575 56.74971 90.18468 "
     id="path678" />
  <path
     style="fill:none;fill-rule:evenodd;stroke:#990000;stroke-opacity:1;stroke-width:1pt;stroke-linejoin:round;stroke-linecap:round;fill-opacity:1;"
     d="M 61.62048 68.12067 C 61.62048 76.49487 62.44164 84.92779 62.78805 93.29692 "
     id="path679" />
</svg>
